<?xml version="1.0" encoding="UTF-8"?>
<svg id="Layer_2" data-name="Layer 2" xmlns="http://www.w3.org/2000/svg" viewBox="0 0 1190.86 314.38">
  <defs>
    <style>
      .cls-1 {
        fill: #fff;
      }
    </style>
  </defs>
  <g id="Layer_1-2" data-name="Layer 1">
    <g>
      <path class="cls-1" d="M38.63,288.39C-3.18,253.41-12.01,194.05,16.84,148.44c18.47-29.58,49.98-50.09,85.46-50.27l63.27-.31.04-91.83c0-3.52,3.49-6.03,6.6-6.03h39.25c3.29,0,7.17,1.93,7.17,6.23l.06,197.65c.01,41.06-22.2,78.3-58.43,97.24-39.21,20.49-87.33,15.94-121.61-12.73ZM165.46,150.79l-59.13.28c-34.48.16-59.54,33.45-51.89,66.9,6.27,27.4,31.74,45.09,59.31,42.9,26.29-2.1,51.22-23.09,51.38-50.84l.32-59.24Z"/>
      <path class="cls-1" d="M390.82,240.19c2.51-2.91,7.15-2.1,9.77-.6l33.22,19.01c3.99,2.28,2.15,7.02.07,9.83-33.93,45.76-97.9,57-144.76,24.76-48.99-33.7-61.37-99.91-29.35-150.09,20.56-32.23,57.58-51.72,96.17-48.7,45.6,3.57,82.41,35.84,93.08,80.05,3.15,13.05,3.53,25.95,2.97,39.32-.17,4.15-3.89,6.2-7.78,6.2l-147.67.13c5.43,20.61,21.71,33.94,39.41,38.21,20.78,5.02,41.15-2.25,54.87-18.13ZM397.18,176.39c-12.04-27.58-44.83-38.9-71.54-26.1-11.52,5.52-20.96,13.71-26.41,26.11h97.96Z"/>
      <path class="cls-1" d="M1190.86,207.85c0,58.84-47.7,106.54-106.54,106.54s-106.54-47.7-106.54-106.54,47.7-106.54,106.54-106.54,106.54,47.7,106.54,106.54ZM1139.45,207.95c0-30.42-24.66-55.08-55.08-55.08s-55.08,24.66-55.08,55.08,24.66,55.08,55.08,55.08,55.08-24.66,55.08-55.08Z"/>
      <path class="cls-1" d="M843.46,107.61c1.6,0,4.38,1.2,5.18,2.28s1.65,4.09.98,5.56l-83.24,183.34c-4.09,9.01-14.8,12.67-24.09,12.67-8.68,0-19.85-3.22-23.72-11.77l-46.22-101.96-37.35-82.68c-.53-1.17.4-4.74,1.34-5.6s3.26-1.83,4.87-1.83l41.07-.03c5.24-.52,7.66,2.53,9.54,6.86l50.58,116.46,51.41-117.49c1.49-3.41,3.72-5.63,7.43-5.83h42.21Z"/>
      <rect class="cls-1" x="346.18" y="129.86" width="309.02" height="53.05" transform="translate(344.27 657.06) rotate(-90)"/>
      <path class="cls-1" d="M903.52,198.38l-.18,106.47c0,3.14-3.05,5.95-5.96,5.94l-40.13-.06c-2.9,0-5.84-2.6-5.85-5.8l-.21-102.89c-.1-50.12,36.85-93.25,87.15-97.34,8.41-.68,16.39-.08,24.83-.27,3.54-.08,6.24,2.93,6.24,6.5v39.1c0,3.33-2.74,6.21-5.99,6.25l-18.61.27c-22.09.32-41.26,18.51-41.3,41.83Z"/>
      <rect class="cls-1" x="563.29" y="110.7" width="53.05" height="200.16"/>
      <circle class="cls-1" cx="589.99" cy="50.58" r="30.48"/>
    </g>
  </g>
</svg>